<?xml version="1.0" standalone="no"?><!DOCTYPE svg PUBLIC "-//W3C//DTD SVG 1.1//EN" "http://www.w3.org/Graphics/SVG/1.1/DTD/svg11.dtd"><svg t="1582768959261" class="icon" viewBox="0 0 1024 1024" version="1.1" xmlns="http://www.w3.org/2000/svg" p-id="2880" xmlns:xlink="http://www.w3.org/1999/xlink" width="200" height="200"><defs><style type="text/css"></style></defs><path d="M740.4288 151.6288L782.848 180.224 302.2336 893.568l-42.4704-28.6208zM325.12 463.36c-15.36 0-25.6-10.24-25.6-25.6V168.96c0-15.36 10.24-25.6 25.6-25.6s25.6 10.24 25.6 25.6v271.36c0 12.8-12.8 23.04-25.6 23.04z" fill="#ffffff" p-id="2881"></path><path d="M471.04 327.68H176.64c-15.36 0-25.6-10.24-25.6-25.6s10.24-25.6 25.6-25.6h294.4c15.36 0 25.6 10.24 25.6 25.6s-10.24 25.6-25.6 25.6zM916.48 729.6H622.08c-15.36 0-25.6-10.24-25.6-25.6s10.24-25.6 25.6-25.6h294.4c15.36 0 25.6 10.24 25.6 25.6s-10.24 25.6-25.6 25.6zM913.92 593.92H619.52c-15.36 0-25.6-10.24-25.6-25.6s10.24-25.6 25.6-25.6h294.4c15.36 0 25.6 10.24 25.6 25.6s-10.24 25.6-25.6 25.6z" fill="#ffffff" p-id="2882"></path></svg>