<?xml version="1.0" standalone="no"?><!DOCTYPE svg PUBLIC "-//W3C//DTD SVG 1.1//EN" "http://www.w3.org/Graphics/SVG/1.1/DTD/svg11.dtd"><svg t="1582768964696" class="icon" viewBox="0 0 1024 1024" version="1.1" xmlns="http://www.w3.org/2000/svg" p-id="3129" xmlns:xlink="http://www.w3.org/1999/xlink" width="200" height="200"><defs><style type="text/css"></style></defs><path d="M766.6 80.8c-31.6-7.8-66.1-18.5-98.5-9.9-11.6 3.1-22.9 9.8-28.8 20.6-6.9 12.7-7.2 28.7-0.8 41.5 5.1 10.1 14.4 17.1 23.5 23.4 1.8 1.3 3.6 2.5 5.4 3.8 0.8 0.6 1.7 1.5 2.6 1.9-2.6-1.1-2.2-1.8-1.2-0.9l1.8 1.5c1.4 1.2 2.5 2.7 3.8 3.9 1.2 1.1-1.5-2.9-1.1-1.4 0.1 0.4 0.5 0.8 0.7 1.2 2 3.3-0.3-2 0-0.2 0 0.3 0.2 1 0.4 1.3 0.8 1.9-0.5-1.6-0.2-1.9-0.2 0.3 0 2.5 0 2.9 0.2 2.6 0-1.8 0.2-1.6 0.1 0.1-0.3 1.5-0.4 1.7-1.3 3.9 1.6-2.2-0.5 1.1-1.2 1.9 2.7-2.5 0-0.2 1.9-1.6 2-1.7 0.1-0.4-1.6 1.2 3.6-0.9 0.2-0.2-0.8 0.2-4.6 0.7-1.8 0.5 3-0.2-1.1 0.1-1.6 0.1-1.1 0.1-2.3 0.1-3.4 0.1h-7.5c-6.1 0-12.2 0.3-18.1 1.6-14.5 3.2-25 14.7-28.4 29-3 12.5-0.8 25.8 9.4 34.4 3.9 3.3 8.1 5.8 12.7 7.9 2.8 1.3 5.7 2.5 8.6 3.6 3.5 1.5-1.9-0.9 0 0 1.1 0.5 2.1 0.9 3.2 1.4 1.8 0.9 3.7 1.8 5.4 2.8 0.8 0.5 1.6 1.3 2.5 1.6 1.6 0.6-2.3-2.3-1.3-1 0.3 0.4 0.9 0.8 1.3 1.2 0.3 0.3 0.6 0.7 1 1 1.6 1.3-1-1-1-1.4 0 0.3 1.3 2.1 1.5 2.4 1.4 1.8-0.9-1.3-0.6-1.6 0 0 0.4 1.2 0.5 1.4 0.1 0.4 0.2 1.1 0.4 1.5 0.8 2.4 0-3.4-0.1-0.7-0.1 1.2-0.1 2.5-0.1 3.7 0 1.1-0.8 2.1 0.1-1-0.2 0.7-0.3 1.6-0.5 2.4-0.4 1.6-0.9 3.1-1.4 4.7 0.1-0.5 1.5-2.8 0.2-0.6-0.4 0.7-0.8 1.5-1.2 2.2-1.6 2.9 1.9-1.5-0.5 0.6-0.4 0.4-0.9 0.8-1.3 1.2-1.1 1.4 2.6-1.4 1-0.8-0.5 0.2-3.8 2.5-1.5 1 1.8-1.2 0.6-0.2-0.1 0s-1.3 0.4-2 0.6c-1.1 0.3-2.2 0.5-3.3 0.7-2.5 0.6 1.3-0.1 1.4-0.1-0.5 0.2-1.3 0.2-1.8 0.2l-8.1 0.6c-5.9 0.4-12 0.8-17.7 2.4-14.3 3.9-25.2 15.4-28.6 30-3.2 14 1.3 26.9 10.1 37.8 12.8 15.7 33.3 25.2 52 31.9 1.3 0.5 2.5 0.9 3.8 1.3-3.5-6.2-7-12.3-10.5-18.5-6.8 29.6-13.7 59.2-20.5 88.8-10.8 46.8-21.7 93.6-32.5 140.5-2.5 10.8-5 21.7-7.5 32.5-2.2 9.4 4.4 19 14.5 19h54.6c6.4 0 13-4.6 14.5-11 4.1-17.8 8.2-35.6 12.4-53.4 9.8-42.4 19.6-84.7 29.4-127.1 11.6-50.3 23.3-100.6 34.9-150.8 9.7-42 19.4-83.9 29.1-125.9 3-12.8 5.9-25.6 8.9-38.4 1.5-6.3 4-13.6 4-20.1-0.2-13.6-8.9-24.7-21.7-28.3-7.5-2.2-16.7 2.6-18.5 10.5-1.8 8 2.4 16.1 10.5 18.5 3.1 0.9 0.2 0.3-0.2-0.4l-0.4-0.4c1.2 1.2 1.3 1.2 0.2 0 0.2 0.4 0.4 0.8 0.6 1.1-0.2-0.4-0.4-0.8-0.6-1.1 0-0.5-0.1-0.9-0.1-1.4 0 1.6 0 1.8 0.1 0.7 0.3-1.1 0.1-0.7 0-0.4-0.1 0.6-0.3 1.2-0.4 1.8-0.7 2.9-1.4 5.9-2 8.8-2.7 11.7-5.4 23.3-8.1 35-9.3 40.3-18.6 80.5-27.9 120.8-11.5 49.6-23 99.2-34.4 148.8l-30 129.6c-3.3 14.3-6.6 28.6-9.9 42.8-1.6 6.7-3.5 13.5-4.7 20.4-0.1 0.3-0.1 0.6-0.2 0.9 4.8-3.7 9.6-7.3 14.5-11h-54.6c4.8 6.3 9.6 12.7 14.5 19 6.8-29.6 13.7-59.2 20.5-88.8 10.8-46.8 21.7-93.6 32.5-140.5 2.5-10.8 5-21.7 7.5-32.5 1.9-8.1-2.5-16-10.5-18.5l-3.6-1.2c-1.3-0.5-2.7-1-4-1.5-0.8-0.3-1.6-0.6-2.4-1-3.2-1.3 2.4 1.1 0.2 0.1-4.2-1.9-8.3-3.8-12.3-6-2.2-1.2-4.4-2.5-6.5-3.8-1.1-0.7-2.1-1.4-3.2-2.1-0.6-0.4-4.1-3-2.3-1.6 1.8 1.4-0.9-0.8-1.4-1.2-0.9-0.8-1.9-1.6-2.8-2.5-0.9-0.8-1.7-1.7-2.5-2.6-0.4-0.4-0.8-0.9-1.2-1.4-1.8-1.9 1.2 2.1 0.5 0.6-0.3-0.5-3.1-5.6-3.2-5.6 1 0 1.1 3.3 0.6 1.2-0.1-0.5-0.4-1.1-0.5-1.6-0.1-0.5-0.2-1.1-0.4-1.6-0.8-2.4 0 2.7 0.1 1.1 0.1-0.9 0.1-2.1-0.1-3-0.3-2.7-0.2 1.5-0.3 1.4-0.1-0.2 0.3-1.4 0.3-1.8l1.2-3.9c-1.1 3.1 0.6-0.8 1.2-1.9 1.7-3-1.8 1.4 0.6-0.8 0.3-0.3 0.7-0.6 1-1 1.7-2.2-1 0.9-1 0.7 0.2-0.6 2.4-1.4 3-1.8 2.2-1.4-1.1 0.8-1.2 0.5 0 0 1.9-0.7 2-0.7 1.1-0.3 2.2-0.6 3.4-0.8 0.4-0.1 0.9-0.1 1.3-0.2 2.5-0.6-1.2 0.1-1.3 0.1 2.2-0.8 5.3-0.5 7.7-0.7 5.8-0.4 11.6-0.8 17.3-1.9 14.2-2.9 24.3-13.1 28.8-26.6 4.4-13.2 3.1-27.7-6-38.4-6.6-7.8-16.3-11.6-25.5-15.5-3.4-1.4 1.8 0.8 0 0-0.8-0.4-1.6-0.7-2.5-1.1-1.9-0.9-3.8-1.8-5.6-2.9-0.4-0.3-1.9-1.6-2.4-1.5 0.2 0 2.9 2.6 1.4 1.1-0.2-0.2-0.5-0.4-0.8-0.7-0.5-0.5-2.5-3-0.8-0.7 2.1 3-0.7-1.1-0.6-1.2 0.3-0.2 1.1 4 0.7 1.7-0.1-0.4-0.3-1-0.4-1.3-0.8-1.8-0.1 3.9 0.1 0.3V210c-0.1-1.4 0.8-1.4-0.1-0.2-1 1.4-0.2 0.9 0.1-0.3l0.6-2.7c0.2-0.8 0.5-1.5 0.7-2.3 0.3-1.1 1.3-1.8-0.2 0.5 0.7-1.1 1.4-2.3 2-3.4-1.3 2.2-0.9 1.3 0.4 0 0.5-0.6 2-1.2 0.1-0.2-2.2 1.2 0.1 0 0.6-0.2 3.4-1.8-2.1 0.4 0.3-0.2 1.1-0.3 2.2-0.7 3.3-0.9 0.7-0.2 4-0.8 1.4-0.3-2.6 0.4 1.6-0.1 2.4-0.1 4.8-0.3 9.5 0 14.3-0.1 12.3-0.3 25.2-3.4 32-14.8 6.4-10.7 6.4-24.9-0.7-35.3-6-8.7-15-14.2-23.4-20.2-0.9-0.7-1.8-1.3-2.7-2-2.6-1.9 1.9 1.7 0 0-1.8-1.6-3.6-3.1-5.2-4.8-0.5-0.5-2.5-3.5-1.2-1.3 1.4 2.3-0.4-0.7-0.7-1.2-0.3-0.4-1.2-2.8-1.5-2.9 1.3 0.4 1 3.2 0.6 1.2l-0.6-2.1c-0.1-0.6-0.2-1.2-0.4-1.7-0.6-1.8-0.1 3.1 0.2 1.3 0.2-1-0.1-2.3-0.1-3.4 0-0.7 0.1-1.4 0.1-2-0.1 3.4-0.3 1.7-0.1 0.8 0.4-1.5 0.7-2.9 1.1-4.3 0.9-3.1-1.7 2.4 0.1-0.2 0.3-0.4 2.4-3.8 0.8-1.5-1.4 2.1 0.3-0.3 0.9-0.8 0.4-0.4 0.8-0.7 1.1-1.1 1.7-1.9-2.8 1.6-0.6 0.4 0.8-0.4 1.6-1 2.4-1.5 0.5-0.3 3.9-2.3 1.5-0.9-2.2 1.3 0.6-0.2 1.4-0.5 1.4-0.5 2.8-0.9 4.2-1.2 1-0.3 2-0.5 3.1-0.7 0.5-0.1 4.8-0.8 2.1-0.4-2.7 0.4 1.1-0.1 1.7-0.1 1.6-0.1 3.2-0.2 4.7-0.3 5.1-0.2 10.2 0 15.2 0.4 2.3 0.2 4.6 0.4 6.9 0.7 0.6 0.1 1.2 0.2 1.8 0.2 2 0.2-3.3-0.5-1.4-0.2 1.2 0.2 2.5 0.4 3.7 0.6 11.7 1.8 23.2 4.9 34.7 7.7 3.1 0.8 6.2 1.5 9.2 2.3 7.6 1.9 16.6-2.4 18.5-10.5 2-7.8-2.1-16.5-10.3-18.5zM438 616.6c-6.7-28.8-13.3-57.7-20-86.5-10.6-45.7-21.2-91.5-31.8-137.2-2.4-10.5-4.9-21-7.3-31.5-3.5 6.2-7 12.3-10.5 18.5 17.5-5.4 34.8-14 48.8-26 10.3-8.8 18.2-21.3 18.3-35.3 0.1-16-9.6-31.5-24.3-37.7-6.4-2.7-13.1-3.6-20-4.2-2.6-0.2-5.1-0.3-7.7-0.5-1.3-0.1-2.7-0.2-4-0.4-3.3-0.3 3.4 0.7-1.2-0.2-1.3-0.3-2.5-0.6-3.7-1-0.3-0.1-1.5-0.4-1.6-0.6-0.2-0.5 3.2 1.8 1.3 0.5-0.5-0.3-1.2-0.9-1.8-1-1.6-0.6 2.1 2.2 1 0.8-0.4-0.5-1.1-1.1-1.6-1.5-1.9-1.5 0.9 2 0.3 0.6-0.6-1.3-1.6-2.6-2.2-3.9 1.5 3.1 0-0.5-0.4-1.9-0.2-0.9-0.3-2.3-0.7-3.1-0.9-1.7 0 2.8 0.1 0.9 0-1.3 0.1-3.2-0.1-4.6-0.2-1.8-1.1 3.7-0.2 1.1 0.2-0.4 0.3-1.1 0.4-1.5 0.7-3.4-1.3 1.7-0.1 0.2 0.3-0.4 0.6-1 0.9-1.5 0.9-1.6-0.2-0.5-0.1 0.1 0.1 1.1-1.2 1.2 0.2-0.1 0.5-0.5 1.1-0.9 1.6-1.4 1.5-1.6-3.2 2-0.1 0.2 0.9-0.5 1.7-1.1 2.5-1.5 2.2-1.3 4.6-2.3 6.9-3.3 3.3-1.5-1.8 0.8 0 0l5.7-2.4c2.3-1 4.7-2 6.9-3.2 4.6-2.4 9-5.4 12.3-9.4 10.4-12.2 9.5-30 1.5-43.3-8-13.5-22.4-18.1-37.3-18.6-5.3-0.2-10.6 0.2-15.9-0.2-0.5 0-1.1-0.1-1.6-0.1-2.5-0.1 1.6 0.1 1.6 0.2 0 0-3.1-0.7-3.3-0.8-3-0.5 3 1.8-0.1 0-3-1.7 2 2.4-0.3-0.3 4.1 5-0.1 0.2 0.2-0.1 0.4-0.3 1.1 3.9 0.4 0.8-0.1-0.6-0.2-1.3-0.5-1.8-0.8-1.6 0 3.9 0.1 1.2v-1.5c-0.3-3.7-0.9 3.3 0.1-0.2 0.9-3.3-1.5 2.2-0.3 0.5 0.3-0.4 0.6-1 0.8-1.5 0.9-1.8 1.3 0-0.9 1.1 1.5-0.7 3.2-3.5 4.6-4.7 0.4-0.3 0.8-0.6 1.2-1 1.7-1.5-1 0.8-1.2 0.9 1.1-0.4 2.3-1.7 3.3-2.4 2-1.4 4.1-2.8 6.2-4.3 4.9-3.5 9.9-7 14-11.4 10.8-11.3 14.5-25.6 11.5-40.9-5.5-28.8-37.1-35.8-62.1-35-15.6 0.5-31 3.2-46.1 7-5.1 1.3-10.3 2.5-15.4 3.8-5 1.2-10.1 2.1-14.6 4.6-11.9 6.6-16.5 20-13.7 32.9 4 18.7 8.7 37.4 13 56.1l27 116.7c10.7 46.2 21.4 92.4 32.1 138.5 9.4 40.6 18.8 81.3 28.2 121.9 5.1 21.9 10.1 43.7 15.2 65.6 0.2 1 0.5 2 0.7 3 1.5 6.4 8.1 11 14.5 11h54.6c7.8 0 15.4-6.9 15-15-0.4-8.1-6.6-15-15-15h-54.6c4.8 3.7 9.6 7.3 14.5 11-3.4-14.7-6.8-29.3-10.2-44-8.3-35.9-16.6-71.7-24.9-107.6-10.4-44.7-20.7-89.5-31.1-134.2-9.7-41.7-19.3-83.4-29-125.1-6.2-26.7-12.4-53.4-18.5-80.1-0.9-3.8-2.1-7.7-2.7-11.6 0.1 0.4 0.1 0.8 0.2 1.3 0.1-1.6 0.1-1.8 0-0.7-0.4 0.3-0.3 3-0.3 1.2l0.3-0.6c-1.1 1.3-1 1.3 0.2 0-0.3 0.2-1.6 1.7-2 1.2 0.1 0.1 3.8-1 4.1-1.1 5.2-1.3 10.3-2.5 15.5-3.8 4.3-1.1 8.6-2.2 13-3.1 3.7-0.8 7.4-1.5 11.1-2.1l3.6-0.6c0.6-0.1 1.1-0.2 1.7-0.2 2.1-0.3-4.1 0.5-1 0.1 2.7-0.3 5.4-0.6 8.2-0.8 5.5-0.4 11.1-0.6 16.7-0.3a12007838731592940 12007838731592940 0 0 0 4.9 0.3c2.6 0.5 5.3 1 7.9 1.8 1.1 0.3 2.2 0.8 3.2 1.1 2.8 0.9-2.5-1.4-0.9-0.4 0.5 0.3 1 0.5 1.5 0.7 1.1 0.6 2 1.3 3.1 1.9 2 1.1-1.8-0.5-1.1-0.9 0.1-0.1 1.6 1.5 1.7 1.6 0.4 0.4 0.7 0.8 1.1 1.1 1.7 1.5-1.8-0.9-0.9-1.2 0.3-0.1 1.4 2.4 1.7 2.7 1.6 2.1-0.8-1.5-0.5-1.4 0.1 0.1 0.5 1.3 0.6 1.6 0.5 1.7 0.8 3.3 1.2 5-0.8-4.2-0.1 0.6-0.1 1.7 0 0.6-0.2 1.3-0.1 1.9 0.3 1.9 0.9-3.7 0.1-0.8-0.3 1.1-0.7 2.3-0.9 3.3-0.5 2.7 0.5-1.5 0.6-1.2 0.1 0.3-1 2-1.1 2.2-0.3 0.5-1.2 2.7-1.8 2.8-0.2 0 2.4-2.7 0.8-1.1-0.4 0.4-0.7 0.8-1.1 1.2-1.8 2-3.9 3.6-5.8 5.4-1.4 1.3 2.6-1.9 1-0.8-0.6 0.4-1.1 0.8-1.7 1.3-0.9 0.7-1.8 1.3-2.8 2-2 1.4-4.1 2.8-6.1 4.3-4.5 3.2-9.2 6.6-12.8 10.8-9.3 10.9-12 26.2-4.5 39 7.3 12.4 20.7 15.4 34.1 15.5 5.2 0 10.5 0.3 15.6 0.3 2 0-3.9-0.8-0.9-0.1 0.6 0.1 1.1 0.2 1.7 0.3 1.1 0.2 2.2 0.7 3.3 0.9 1.8 0.4-2.9-1.5 0.3 0.2 0.3 0.2 2.9 1.6 0.6 0.2-2.1-1.3 0 0.1 0.5 0.5s0.8 0.9 1.2 1.3c-2.5-2.4-1-1.5-0.4-0.4 0.3 0.6 0.6 1.3 1 1.8 1.2 1.5-1-3.4 0-0.1 0.4 1.5 0.9 3 1.3 4.5 0.1 0.4 0.4 1.5 0.4 1.9 0.6-3.3-0.1-2.1-0.2-0.5 0 0.5-0.1 1.1 0 1.6 0.2 1.9-1.3-0.7 0.3-1.8-0.1 0.1-0.8 2.5-0.8 2.7-0.2-0.9 1.6-3.7 0.5-1.5-0.2 0.4-0.6 0.7-0.7 1.1-0.5 1.5 2.5-2.3 1.1-1.5-0.5 0.3-1 1-1.4 1.4-2.2 2.3 0.2-0.1 0.4-0.2-0.9 0.4-1.8 1.2-2.7 1.7-1.9 1.1-4 2.1-6 3-0.5 0.2-0.9 0.4-1.4 0.6-2.2 1 1.4-0.6 1.4-0.6 0 0.3-4.7 2-4.7 2-2.6 1.1-5.3 2.2-7.8 3.4-10.6 5.2-19.8 13.9-22.2 25.9-3.1 16 3 34.5 16.6 43.9 10.4 7.2 23.2 7 35.3 8.1 0.7 0.1 5.3 0.5 2.5 0.2-2.8-0.2 1.3 0.3 1.9 0.4 1.3 0.3 2.5 0.8 3.8 1.1 2.2 0.5-1.2-0.6-1.2-0.6 0.5-0.1 1.9 1 2.3 1.2 0.3 0.1 1.4 0.8 1.5 0.9 0.1 0.2-2.7-2.9-1-0.7 1 1.3 2.4 3.1 0.8 0.5 0.8 1.3 1.5 2.9 2.4 4.1 1.2 1.5-0.6-2.4-0.2-0.4 0.2 0.8 0.6 1.6 0.8 2.4 0.2 0.7 0.3 1.5 0.5 2.2 0.6 1.8 0-3.2-0.2-1.3 0 0.3 0.4 3.7-0.1 3.8-0.3 0.1 1-4.1 0.2-1.5-0.2 0.5-0.2 1.1-0.4 1.6-0.1 0.5-0.4 1.1-0.5 1.6-0.5 2.6 1.7-2.8 0.2-0.5-0.6 1-1.1 2-1.7 3-0.3 0.5-0.7 1-1 1.4-1.5 2.6 1.9-2 0.5-0.6-1.9 2-3.6 4.1-5.7 5.9-1.1 0.9-2.2 1.8-3.2 2.7 2.5-2.1 0.6-0.4-0.8 0.5-2.3 1.6-4.7 3.2-7.2 4.6-4.6 2.7-9.3 5-14.1 7.2-1.3 0.6-4.4 1.3 0.1 0-0.9 0.3-1.7 0.7-2.6 1-1.5 0.6-3 1.2-4.6 1.7-1.4 0.5-2.8 1-4.3 1.5-8 2.5-12.4 10.3-10.5 18.5 6.7 28.8 13.3 57.7 20 86.5 10.6 45.7 21.2 91.5 31.8 137.2 2.4 10.5 4.9 21 7.3 31.5 1.8 7.9 10.9 12.6 18.5 10.5 8.1-2 12.3-10.3 10.5-18.2z" fill="#ffffff" p-id="3130"></path><path d="M658.3 605.6c-16.5 0-33 0.1-49.5 0.1-6.4 0-12.9-0.2-19.4 0-15.5 0.5-28.1 10.9-31.5 26.1-4 17.7-7.6 35.6-11.5 53.3-1.4 6.5-2.8 12.9-4.2 19.4-1.2 5.9-2.4 11.7-3.9 17.5-0.7 2.7-1.6 5.4-2.5 8.1-0.4 1.1-2.3 4.8-0.4 1.2-0.7 1.4-1.3 2.8-2 4.1-0.6 1.2-1.3 2.3-2.1 3.4-0.4 0.5-0.8 1.1-1.1 1.6-0.9 1.7 2-1.9 0.5-0.7-1.1 0.9-2 2.2-3.1 3.2-0.5 0.5-1 0.9-1.5 1.3 1.2-1.1 2-1.4 0.2-0.3-1.2 0.7-2.4 1.3-3.6 2-1.6 1.1 2.6-0.7 0.7-0.3-0.7 0.2-1.4 0.5-2.1 0.7-1.5 0.4-3 0.6-4.5 1-2 0.5 2.5 0.1 0.3-0.1-1.1-0.1-2.2 0.2-3.2 0.2-1.8 0-3.7-0.1-5.5-0.2-2.9-0.1-0.5 0 0.1 0.1-0.8-0.1-1.6-0.3-2.5-0.5-1.7-0.4-3.4-1.2-5.1-1.5-2-0.4 2.2 1.2 0.5 0.2-0.8-0.5-1.6-0.8-2.4-1.2-1.2-0.7-2.4-1.5-3.6-2.3 3.2 1.9 0-0.1-0.9-1-1-1-1.9-2-2.8-3-1.7-1.9 0.2 0.2 0.4 0.6-0.6-0.9-1.2-1.7-1.7-2.6-1.5-2.4-2.7-4.9-4-7.4-1.2-2.4 0.1 0.3 0.3 0.7-0.3-0.7-0.5-1.3-0.8-2-0.6-1.7-1.2-3.4-1.8-5-1.8-5.5-3.1-11.2-4.4-16.8-1.5-6.3-2.9-12.6-4.3-18.9-3.8-18.1-7.6-36.2-11.5-54.3-3.4-15.3-15.7-26.1-31.5-26.6-6.1-0.2-12.2 0-18.3 0-16.6 0-33.3-0.6-49.9 0.1-20.5 0.8-33.2 19.2-29.3 38.7 0.8 4.2 1.8 8.3 2.8 12.5 8.2 37.2 16.4 74.3 24.6 111.5 2.8 12.8 7.2 25.1 14.7 35.9 14.4 21 35.4 35 59.1 43.7 32.8 12 70.7 14 105.1 9.6 30-3.9 58.6-13.5 82.2-32.8 15.3-12.5 26.8-29.1 33.7-47.6 3.9-10.4 5.3-22.2 7.7-33 7.5-33.4 16-66.7 22.6-100.3 4.1-19.3-8.6-37.6-29.1-38.4-7.8-0.3-15.4 7.1-15 15 0.4 8.4 6.6 14.6 15 15 3.2 0.1 0.3 0.1-0.1 0 3.1 1.2 0 0-0.1-0.1 2.6 2.8-0.1-0.6-0.1-0.1l0.4 0.4c0.7 0.8 0.6 0.6-0.4-0.6 0.1-0.2 1.5 3.5 0.2-0.2 0.3 0.8 0.5 1.7 0.7 2.5-0.5-2.9-0.6 1.3-0.1-1.3-0.2 0.9-0.4 1.8-0.6 2.8-1.3 5.8-2.6 11.6-3.9 17.3-4.4 19.7-8.9 39.3-13.3 59L630.2 763c-0.3 1.3-0.5 2.7-0.9 4-0.1 0.5-0.3 0.9-0.5 1.4-0.3 0.8-0.6 1.5-0.9 2.3-0.1 0.4-0.3 0.8-0.5 1.2-0.9 2.5 1.6-3.6 0.5-1.2-1.6 3.4-3.2 6.8-5.2 10-1 1.8-2.1 3.5-3.3 5.2-0.5 0.8-1.1 1.5-1.6 2.3-0.3 0.4-0.7 0.9-1 1.3-1 1.5 2.3-2.7 0.6-0.8-3.2 3.7-6.3 7.3-9.8 10.6-1.7 1.6-3.5 3.1-5.3 4.6l-1.5 1.2c2.8-2.4 1.4-1 0.7-0.6-1.4 1-2.7 2-4.1 2.9-4.8 3.2-9.8 6.1-15 8.6-1.4 0.7-2.8 1.3-4.2 1.9-0.6 0.3-2.6 1 0.3-0.1-0.8 0.3-1.5 0.6-2.2 0.9-3.1 1.2-6.3 2.3-9.5 3.3-7.2 2.3-14.6 4-22.1 5.2-1 0.2-1.9 0.3-2.9 0.5-0.3 0.1-3.4 0.5-1.7 0.3 1.5-0.2-1 0.1-1 0.1-1 0.1-2.1 0.2-3.1 0.3-4.9 0.5-9.8 0.9-14.7 1.1-9.3 0.4-18.6 0.3-27.9-0.3-4.3-0.3-8.6-0.7-12.9-1.1-0.4 0-3-0.4-0.6 0-0.7-0.1-1.5-0.2-2.2-0.3-2.2-0.3-4.4-0.7-6.5-1.1-7.3-1.3-14.6-3.1-21.6-5.4-2.9-0.9-5.8-2-8.7-3.1-2.6-1-0.2 0 0.3 0.2l-2.1-0.9-5.1-2.4c-5-2.5-9.8-5.4-14.3-8.7-0.9-0.7-4-3.3-0.9-0.6-0.9-0.8-2-1.6-2.9-2.4-1.8-1.6-3.6-3.3-5.4-5-1.6-1.7-3.2-3.4-4.7-5.2-0.4-0.4-0.7-0.9-1.1-1.3-1.2-1.4 0.6-0.3 0.8 1.1-0.1-0.8-1.7-2.3-2.2-3-2.5-3.5-4.6-7.3-6.5-11.1-0.4-0.8-0.7-1.6-1.1-2.4-1.4-3.1 1.2 3.4 0.1 0.2-0.7-1.9-1.4-3.7-2-5.7-0.4-1.3-0.7-2.6-1.1-4-7.8-33.9-15-67.9-22.5-101.9-1.6-7.2-3.2-14.5-4.8-21.7-0.4-1.8-0.8-3.7-1.2-5.5l-0.3-1.2v-0.2c0.1 0.3 0.6 2.1 0.2 0.5 0-1.1 0-0.9-0.2 0.6 0.1-0.4 0.2-0.9 0.3-1.3-1.1 0.7-0.8 1.3 0.1-0.1 1.7-2.8 0.1-0.3 0-0.1l0.9-0.9c-0.3 0.3-0.6 0.5-0.9 0.8-0.1 0.4 1.6-1.8 0-0.1 1.1-1.3 1.5 0 0.1 0h0.7c2.4 0.5 5.4 0 7.9 0H428.6c1.7 0 3.5-0.1 5.2 0-2.5-0.2-0.2 0.3-0.2 0.2l-0.6-0.3c-1-0.5-0.8-0.3 0.5 0.4-0.2-0.1-0.3-0.3-0.5-0.4-0.8-0.7-0.6-0.6 0.5 0.4 0.1 0.2 0.3 0.3 0.4 0.5 0.7 0.8 0.6 0.6-0.3-0.5 0.2 0 1.6 3 0.3 0 0.3 0.8 0.6 1.8 0.8 2.6 0 0.1 0 0.2 0.1 0.3 3.9 16.4 7 33.1 10.6 49.7 3.5 16.3 6.3 33.3 12.5 48.8 5.4 13.3 13.3 25.7 26.1 32.9 13.4 7.5 31.3 9.4 46 4.7 27.5-8.7 36-36.3 41.1-61.8 3.2-15.7 6.7-31.4 10.1-47.1l5.4-25.2c0.2-0.7 0.3-1.5 0.5-2.2 0-0.1 0.1-0.3 0.1-0.4 0.3-1.2 0.3-1.1 0.6-2 0.3-1 0.3-0.9-0.2 0.5 0.2-0.4 0.5-0.7 0.7-1.1-0.3 0.3-0.5 0.7-0.8 1l0.9-0.9c0.2-0.1 0.3-0.3 0.5-0.4 0.8-0.7 0.6-0.6-0.5 0.4l0.6-0.3c1-0.5 0.7-0.4-0.7 0.2-0.1-0.2 3.9-0.6-0.2-0.2 0.7-0.1 1.5 0 2.2-0.1 17.5-0.2 35-0.1 52.5-0.1h15.6c7.8 0 15.4-6.9 15-15-0.4-8-6.7-14.9-15.1-14.9z" fill="#ffffff" p-id="3131"></path><path d="M559.2 895.3c-0.2 16.3-10.2 31.6-25.8 37.2-16.1 5.8-34.3 0.9-45-12.5-10.2-12.8-11.3-31.1-2.9-45.1 8.3-13.9 24.9-21.6 40.9-18.7 19 3.5 32.6 20 32.8 39.1 0.2 12.9 20.2 12.9 20 0-0.3-25.1-15.8-47.1-39.2-56-23-8.7-50.5-1.3-66.1 17.7-15.9 19.4-18.6 47.1-5.7 68.8 13 21.7 38.2 32.5 62.8 28 27.9-5 47.8-30.7 48.2-58.5 0.2-12.9-19.8-12.9-20 0z" fill="#ffffff" p-id="3132"></path><path d="M524.7 895.3c-0.3 6.7-10.4 6.8-10.4 0 0.1-6.8 10.1-6.7 10.4 0 0.6 12.8 20.6 12.9 20 0-0.6-13.7-11.1-25.2-25.2-25.2-13.8 0-25.1 11.5-25.2 25.2-0.1 13.7 11.6 25.2 25.2 25.2 14.1 0 24.6-11.5 25.2-25.2 0.6-12.8-19.4-12.8-20 0zM506.3 762.6c-0.2 27.4-0.3 54.8-0.5 82.2 0 6.4 10 6.4 10 0 0.2-27.4 0.3-54.8 0.5-82.2 0.1-6.4-9.9-6.4-10 0zM534.9 757.9c9.2 23.7 18.4 47.5 27.6 71.2l3.9 10.2c2.3 5.9 12 3.4 9.6-2.7-9.2-23.7-18.4-47.5-27.6-71.2l-3.9-10.2c-2.2-5.9-11.9-3.3-9.6 2.7zM545.4 741.7c23 14.8 45.9 29.5 68.9 44.3 3.2 2.1 6.5 4.2 9.7 6.3 5.4 3.5 10.5-5.2 5-8.6-23-14.8-45.9-29.5-68.9-44.3-3.2-2.1-6.5-4.2-9.7-6.3-5.4-3.5-10.4 5.1-5 8.6zM556 712.5c28 6.2 56 12.5 84 18.7 4.1 0.9 8.1 1.8 12.2 2.7 6.3 1.4 8.9-8.2 2.7-9.6-28-6.2-56-12.5-84-18.7-4.1-0.9-8.1-1.8-12.2-2.7-6.3-1.4-9 8.2-2.7 9.6zM564.5 678.9l88.2 2.4 12.5 0.3c6.4 0.2 6.4-9.8 0-10l-88.2-2.4-12.5-0.3c-6.4-0.2-6.4 9.8 0 10zM478.4 754.1c-9.2 23.7-18.4 47.5-27.6 71.2l-3.9 10.2c-2.3 6 7.3 8.6 9.6 2.7 9.2-23.7 18.4-47.5 27.6-71.2l3.9-10.2c2.4-6.1-7.3-8.7-9.6-2.7zM471 736.2c-23.4 14.1-46.7 28.3-70.1 42.4l-9.9 6c-5.5 3.3-0.5 12 5 8.6 23.4-14.1 46.7-28.3 70.1-42.4l9.9-6c5.6-3.3 0.6-11.9-5-8.6zM462.2 706.5c-28 6.2-56 12.5-84 18.7-4.1 0.9-8.1 1.8-12.2 2.7-6.3 1.4-3.6 11 2.7 9.6 28-6.2 56-12.5 84-18.7 4.1-0.9 8.1-1.8 12.2-2.7 6.2-1.4 3.5-11-2.7-9.6zM456.3 670.3l-88.2 2.4-12.5 0.3c-6.4 0.2-6.4 10.2 0 10l88.2-2.4 12.5-0.3c6.4-0.2 6.5-10.2 0-10z" fill="#ffffff" p-id="3133"></path></svg>