<?xml version="1.0" standalone="no"?><!DOCTYPE svg PUBLIC "-//W3C//DTD SVG 1.1//EN" "http://www.w3.org/Graphics/SVG/1.1/DTD/svg11.dtd"><svg t="1582768973988" class="icon" viewBox="0 0 1024 1024" version="1.1" xmlns="http://www.w3.org/2000/svg" p-id="3505" xmlns:xlink="http://www.w3.org/1999/xlink" width="200" height="200"><defs><style type="text/css"></style></defs><path d="M384 672H128a32 32 0 0 1-32-32V384a32 32 0 0 1 32-32h256a32 32 0 0 1 32 32v256a32 32 0 0 1-32 32z m-224-64h192v-192h-192zM896 288h-128a32 32 0 0 1-32-32V128a32 32 0 0 1 32-32h128a32 32 0 0 1 32 32v128a32 32 0 0 1-32 32z m-96-64h64v-64h-64zM896 928h-128a32 32 0 0 1-32-32v-128a32 32 0 0 1 32-32h128a32 32 0 0 1 32 32v128a32 32 0 0 1-32 32z m-96-64h64v-64h-64zM896 608h-128a32 32 0 0 1-32-32V448a32 32 0 0 1 32-32h128a32 32 0 0 1 32 32v128a32 32 0 0 1-32 32z m-96-64h64v-64h-64z" fill="#ffffff" p-id="3506"></path><path d="M736 864H576a32 32 0 0 1-32-32V192a32 32 0 0 1 32-32h160a32 32 0 0 1 0 64h-128v576h128a32 32 0 0 1 0 64z" fill="#ffffff" p-id="3507"></path><path d="M768 544H384a32 32 0 0 1 0-64h384a32 32 0 0 1 0 64z" fill="#ffffff" p-id="3508"></path></svg>