<?xml version="1.0" standalone="no"?><!DOCTYPE svg PUBLIC "-//W3C//DTD SVG 1.1//EN" "http://www.w3.org/Graphics/SVG/1.1/DTD/svg11.dtd"><svg t="1582768954392" class="icon" viewBox="0 0 1024 1024" version="1.1" xmlns="http://www.w3.org/2000/svg" p-id="2632" xmlns:xlink="http://www.w3.org/1999/xlink" width="200" height="200"><defs><style type="text/css"></style></defs><path d="M1020.608674 669.755713c-19.439788-86.268644-39.099649-172.537288-58.832868-258.805932-4.108031-17.825919-21.420446-23.327746-34.62483-10.856938-64.114621 60.886883-128.155885 121.847124-192.050433 183.027437-13.424457 12.837596-9.096354 29.709865 8.509492 35.211691 18.706211 5.868615 37.48578 11.663873 56.338706 16.872269 6.822265 1.9073 9.022996 3.8146 5.575184 11.077011-41.080307 87.002221-106.07522 147.008812-197.332187 177.305538-15.625188 5.208396-31.910595 8.216061-49.22301 11.297084 4.548177 5.575184 8.58285 10.343434 12.470807 15.2584 23.621176 30.223368 51.056953 57.365714 71.597106 90.083244 2.494161 3.961315 4.548177 1.760585 6.968981 1.027008 14.744896-4.621534 29.123003-10.196719 43.134322-16.652196 108.422666-49.956587 186.10846-130.2099 233.057382-240.393151 3.227738-7.6292 5.941973-9.976646 14.378107-6.895623 17.45913 6.308761 35.358407 11.297084 53.110968 16.725553C1012.539328 699.759009 1024.936778 688.975428 1020.608674 669.755713zM548.038433 285.654846C561.756321 300.766531 579.655597 296.511785 585.817643 276.925281 591.906331 257.485493 598.141735 237.972348 603.496846 218.312487c2.200731-8.069346 5.208396-9.169711 12.764238-6.528834 80.473386 28.829572 141.506985 80.326671 181.560284 156.545311 11.590515 22.154022 19.806576 45.555126 26.408769 70.863529 3.447811-3.081023 6.015331-5.208396 8.436134-7.555842 21.127015-20.246723 42.25403-40.420087 63.307687-60.740168 6.162046-5.941973 12.764238-11.517157 20.613511-14.378107 9.169711-3.227738 9.756573-7.189054 5.941973-15.845261-54.578122-122.580701-144.734723-205.915037-270.983308-249.489505-7.849273-2.714235-8.58285-5.281754-6.088688-12.470807 6.308761-17.899276 12.030661-36.091984 17.532488-54.284691 4.254746-14.158034-6.528834-26.408769-21.053657-24.281396C639.515472 0.586862 637.094669 1.027008 634.747223 1.540511 551.192813 19.806576 467.638404 38.072641 384.083995 56.412064c-20.100007 4.401461-25.455119 20.686869-11.663873 35.945268C430.886201 156.838742 489.425638 221.320152 548.038433 285.654846zM290.259509 449.682642c12.39745-13.204384 6.822265-30.516799-10.710223-34.771545C261.796725 410.582993 244.190879 406.034816 226.36496 402.366932c-6.968981-1.467154-8.289419-3.081023-5.355111-9.976646 23.987965-55.751845 60.446737-101.30697 109.302959-136.958808 28.022638-20.393438 58.75951-35.358407 92.870836-46.582133-28.90293-31.617165-56.925568-61.840533-84.361344-92.577405-5.135038-5.7219-8.58285-6.528834-15.405115-3.154381-106.442009 53.331041-181.633641 135.198223-223.887671 247.215417C96.888637 367.448671 94.027687 369.06254 86.691918 367.15524c-20.613511-5.501827-41.447095-10.343434-62.354037-15.038327C9.519627 348.74246-2.070888 361.13991 1.963785 375.884806c23.547819 85.901855 47.168995 171.803711 71.010244 257.632209 5.061681 18.339423 22.520811 22.887599 35.431764 9.243069C169.145962 578.498746 229.812772 514.164052 290.259509 449.682642zM439.835839 742.966688c-11.4438-13.937961-27.655849-11.077011-34.404757 5.941973-6.67555 16.652196-13.277742 33.377749-19.219715 50.250018-2.640877 7.6292-5.208396 9.609857-13.057669 5.501827-86.855505-45.555126-143.707715-115.318289-169.162834-211.416864C199.956192 594.490723 198.195607 597.791819 195.848161 600.28598 174.427715 622.733434 153.080628 645.180887 131.73354 667.701698 125.644851 674.157175 119.042659 680.319221 110.166379 682.153163 102.17039 683.84039 101.656887 686.481267 104.884625 693.817036c46.802206 104.094563 120.37997 181.780357 223.59424 230.343148 6.235404 2.934308 7.189054 5.355111 4.621534 11.590515-8.362777 20.173365-16.285407 40.493445-23.841249 60.886883-5.868615 15.991977 4.034673 28.536142 20.833584 27.289061 2.420804-0.220073 4.914965-0.440146 7.335769-0.880292 85.168279-13.864603 170.336557-27.875922 255.431478-41.667168 21.640519-3.521169 27.802565-18.192707 14.084677-34.991618C551.339529 878.458342 495.661042 810.675836 439.835839 742.966688z" fill="#ffffff" p-id="2633"></path></svg>